<svg id="Capa_1" data-name="Capa 1" xmlns="http://www.w3.org/2000/svg" viewBox="0 0 13.25 14.73"><defs><style>.cls-1{fill:#1d1d1b;}</style></defs><path class="cls-1" d="M11.27,4.72c-1.09,0-2.57,0-7.42,0H3.78V4.6L4.58.49,4.66,0H.2L0,1.26H2.48v.07L1.78,6h9.67l0,.07-.83,2.72H1.36L.8,12.49H1.88l-.14.1a1.34,1.34,0,0,0-.53.84,1.17,1.17,0,0,0,.22,1,1,1,0,0,0,.79.35,1.55,1.55,0,0,0,1.46-1.32.94.94,0,0,0-.27-.82l-.1-.1H8.39l-.13.1a1.36,1.36,0,0,0-.54.84,1.14,1.14,0,0,0,.23,1,1,1,0,0,0,.79.35,1.55,1.55,0,0,0,1.46-1.32,1,1,0,0,0-.27-.82l-.1-.1h.83L11,11.38H2.55l.24-1.26h8.86l1.6-5.39Z"/></svg>